<mxfile host="app.diagrams.net" modified="2022-06-13T07:51:13.920Z" agent="5.0 (Windows NT 10.0; Win64; x64) AppleWebKit/537.36 (KHTML, like Gecko) Chrome/102.0.5005.63 Safari/537.36 Edg/102.0.1245.39" etag="CNm2wMiUNmNwtYNoHEdw" version="20.0.1" type="github">
  <diagram id="LUWd0RnP1zfQRcRklKom" name="Page-1">
    <mxGraphModel dx="716" dy="426" grid="1" gridSize="10" guides="1" tooltips="1" connect="1" arrows="1" fold="1" page="1" pageScale="1" pageWidth="827" pageHeight="1169" math="0" shadow="0">
      <root>
        <mxCell id="0" />
        <mxCell id="1" parent="0" />
        <mxCell id="I5kaAo43inrt2bW0OfoS-1" value="P" style="ellipse;whiteSpace=wrap;html=1;fillColor=#dae8fc;strokeColor=#6c8ebf;" vertex="1" parent="1">
          <mxGeometry x="90" y="195" width="80" height="50" as="geometry" />
        </mxCell>
        <mxCell id="I5kaAo43inrt2bW0OfoS-2" value="X" style="rounded=1;whiteSpace=wrap;html=1;fillColor=#ffe6cc;strokeColor=#d79b00;" vertex="1" parent="1">
          <mxGeometry x="210" y="190" width="60" height="60" as="geometry" />
        </mxCell>
        <mxCell id="I5kaAo43inrt2bW0OfoS-3" value="Q1" style="rounded=0;whiteSpace=wrap;html=1;fillColor=#f8cecc;strokeColor=#b85450;align=left;" vertex="1" parent="1">
          <mxGeometry x="370" y="140" width="160" height="30" as="geometry" />
        </mxCell>
        <mxCell id="I5kaAo43inrt2bW0OfoS-4" value="C1" style="ellipse;whiteSpace=wrap;html=1;fillColor=#d5e8d4;strokeColor=#82b366;" vertex="1" parent="1">
          <mxGeometry x="576" y="130" width="80" height="50" as="geometry" />
        </mxCell>
        <mxCell id="I5kaAo43inrt2bW0OfoS-5" style="edgeStyle=orthogonalEdgeStyle;rounded=0;orthogonalLoop=1;jettySize=auto;html=1;exitX=0.25;exitY=0;exitDx=0;exitDy=0;entryX=0.25;entryY=1;entryDx=0;entryDy=0;endArrow=none;endFill=0;" edge="1" parent="1" source="I5kaAo43inrt2bW0OfoS-3" target="I5kaAo43inrt2bW0OfoS-3">
          <mxGeometry relative="1" as="geometry" />
        </mxCell>
        <mxCell id="I5kaAo43inrt2bW0OfoS-6" style="edgeStyle=orthogonalEdgeStyle;rounded=0;orthogonalLoop=1;jettySize=auto;html=1;exitX=0.5;exitY=0;exitDx=0;exitDy=0;entryX=0.5;entryY=1;entryDx=0;entryDy=0;endArrow=none;endFill=0;" edge="1" parent="1" source="I5kaAo43inrt2bW0OfoS-3" target="I5kaAo43inrt2bW0OfoS-3">
          <mxGeometry relative="1" as="geometry" />
        </mxCell>
        <mxCell id="I5kaAo43inrt2bW0OfoS-7" style="edgeStyle=orthogonalEdgeStyle;rounded=0;orthogonalLoop=1;jettySize=auto;html=1;exitX=0.75;exitY=0;exitDx=0;exitDy=0;entryX=0.75;entryY=1;entryDx=0;entryDy=0;endArrow=none;endFill=0;" edge="1" parent="1" source="I5kaAo43inrt2bW0OfoS-3" target="I5kaAo43inrt2bW0OfoS-3">
          <mxGeometry relative="1" as="geometry" />
        </mxCell>
        <mxCell id="I5kaAo43inrt2bW0OfoS-10" value="Q2" style="rounded=0;whiteSpace=wrap;html=1;fillColor=#f8cecc;strokeColor=#b85450;align=left;" vertex="1" parent="1">
          <mxGeometry x="370" y="205" width="160" height="30" as="geometry" />
        </mxCell>
        <mxCell id="I5kaAo43inrt2bW0OfoS-11" style="edgeStyle=orthogonalEdgeStyle;rounded=0;orthogonalLoop=1;jettySize=auto;html=1;exitX=0.25;exitY=0;exitDx=0;exitDy=0;entryX=0.25;entryY=1;entryDx=0;entryDy=0;endArrow=none;endFill=0;" edge="1" parent="1" source="I5kaAo43inrt2bW0OfoS-10" target="I5kaAo43inrt2bW0OfoS-10">
          <mxGeometry relative="1" as="geometry" />
        </mxCell>
        <mxCell id="I5kaAo43inrt2bW0OfoS-12" style="edgeStyle=orthogonalEdgeStyle;rounded=0;orthogonalLoop=1;jettySize=auto;html=1;exitX=0.5;exitY=0;exitDx=0;exitDy=0;entryX=0.5;entryY=1;entryDx=0;entryDy=0;endArrow=none;endFill=0;" edge="1" parent="1" source="I5kaAo43inrt2bW0OfoS-10" target="I5kaAo43inrt2bW0OfoS-10">
          <mxGeometry relative="1" as="geometry" />
        </mxCell>
        <mxCell id="I5kaAo43inrt2bW0OfoS-13" style="edgeStyle=orthogonalEdgeStyle;rounded=0;orthogonalLoop=1;jettySize=auto;html=1;exitX=0.75;exitY=0;exitDx=0;exitDy=0;entryX=0.75;entryY=1;entryDx=0;entryDy=0;endArrow=none;endFill=0;" edge="1" parent="1" source="I5kaAo43inrt2bW0OfoS-10" target="I5kaAo43inrt2bW0OfoS-10">
          <mxGeometry relative="1" as="geometry" />
        </mxCell>
        <mxCell id="I5kaAo43inrt2bW0OfoS-14" value="Q3" style="rounded=0;whiteSpace=wrap;html=1;fillColor=#f8cecc;strokeColor=#b85450;align=left;" vertex="1" parent="1">
          <mxGeometry x="370" y="270" width="160" height="30" as="geometry" />
        </mxCell>
        <mxCell id="I5kaAo43inrt2bW0OfoS-15" style="edgeStyle=orthogonalEdgeStyle;rounded=0;orthogonalLoop=1;jettySize=auto;html=1;exitX=0.25;exitY=0;exitDx=0;exitDy=0;entryX=0.25;entryY=1;entryDx=0;entryDy=0;endArrow=none;endFill=0;" edge="1" parent="1" source="I5kaAo43inrt2bW0OfoS-14" target="I5kaAo43inrt2bW0OfoS-14">
          <mxGeometry relative="1" as="geometry" />
        </mxCell>
        <mxCell id="I5kaAo43inrt2bW0OfoS-16" style="edgeStyle=orthogonalEdgeStyle;rounded=0;orthogonalLoop=1;jettySize=auto;html=1;exitX=0.5;exitY=0;exitDx=0;exitDy=0;entryX=0.5;entryY=1;entryDx=0;entryDy=0;endArrow=none;endFill=0;" edge="1" parent="1" source="I5kaAo43inrt2bW0OfoS-14" target="I5kaAo43inrt2bW0OfoS-14">
          <mxGeometry relative="1" as="geometry" />
        </mxCell>
        <mxCell id="I5kaAo43inrt2bW0OfoS-17" style="edgeStyle=orthogonalEdgeStyle;rounded=0;orthogonalLoop=1;jettySize=auto;html=1;exitX=0.75;exitY=0;exitDx=0;exitDy=0;entryX=0.75;entryY=1;entryDx=0;entryDy=0;endArrow=none;endFill=0;" edge="1" parent="1" source="I5kaAo43inrt2bW0OfoS-14" target="I5kaAo43inrt2bW0OfoS-14">
          <mxGeometry relative="1" as="geometry" />
        </mxCell>
        <mxCell id="I5kaAo43inrt2bW0OfoS-18" value="C2" style="ellipse;whiteSpace=wrap;html=1;fillColor=#d5e8d4;strokeColor=#82b366;" vertex="1" parent="1">
          <mxGeometry x="576" y="195" width="80" height="50" as="geometry" />
        </mxCell>
        <mxCell id="I5kaAo43inrt2bW0OfoS-19" value="C3" style="ellipse;whiteSpace=wrap;html=1;fillColor=#d5e8d4;strokeColor=#82b366;" vertex="1" parent="1">
          <mxGeometry x="576" y="260" width="80" height="50" as="geometry" />
        </mxCell>
        <mxCell id="I5kaAo43inrt2bW0OfoS-20" value="info.*.#" style="endArrow=classic;html=1;rounded=0;entryX=0;entryY=0.5;entryDx=0;entryDy=0;" edge="1" parent="1" target="I5kaAo43inrt2bW0OfoS-3">
          <mxGeometry width="50" height="50" relative="1" as="geometry">
            <mxPoint x="270" y="220" as="sourcePoint" />
            <mxPoint x="320" y="170" as="targetPoint" />
          </mxGeometry>
        </mxCell>
        <mxCell id="I5kaAo43inrt2bW0OfoS-21" value="error.shanghai.#" style="endArrow=classic;html=1;rounded=0;exitX=1;exitY=0.5;exitDx=0;exitDy=0;entryX=0;entryY=0.5;entryDx=0;entryDy=0;" edge="1" parent="1" source="I5kaAo43inrt2bW0OfoS-2" target="I5kaAo43inrt2bW0OfoS-10">
          <mxGeometry width="50" height="50" relative="1" as="geometry">
            <mxPoint x="400" y="220" as="sourcePoint" />
            <mxPoint x="450" y="170" as="targetPoint" />
          </mxGeometry>
        </mxCell>
        <mxCell id="I5kaAo43inrt2bW0OfoS-22" value="error.beijing.#" style="endArrow=classic;html=1;rounded=0;entryX=0;entryY=0.5;entryDx=0;entryDy=0;exitX=1;exitY=0.5;exitDx=0;exitDy=0;" edge="1" parent="1" source="I5kaAo43inrt2bW0OfoS-2" target="I5kaAo43inrt2bW0OfoS-14">
          <mxGeometry width="50" height="50" relative="1" as="geometry">
            <mxPoint x="260" y="285" as="sourcePoint" />
            <mxPoint x="310" y="235" as="targetPoint" />
          </mxGeometry>
        </mxCell>
        <mxCell id="I5kaAo43inrt2bW0OfoS-23" value="" style="endArrow=classic;html=1;rounded=0;entryX=0;entryY=0.5;entryDx=0;entryDy=0;exitX=1;exitY=0.5;exitDx=0;exitDy=0;" edge="1" parent="1" source="I5kaAo43inrt2bW0OfoS-1" target="I5kaAo43inrt2bW0OfoS-2">
          <mxGeometry width="50" height="50" relative="1" as="geometry">
            <mxPoint x="170" y="230" as="sourcePoint" />
            <mxPoint x="220" y="180" as="targetPoint" />
          </mxGeometry>
        </mxCell>
        <mxCell id="I5kaAo43inrt2bW0OfoS-25" value="" style="endArrow=classic;html=1;rounded=0;entryX=0;entryY=0.5;entryDx=0;entryDy=0;exitX=1;exitY=0.5;exitDx=0;exitDy=0;" edge="1" parent="1" source="I5kaAo43inrt2bW0OfoS-3" target="I5kaAo43inrt2bW0OfoS-4">
          <mxGeometry width="50" height="50" relative="1" as="geometry">
            <mxPoint x="530" y="160" as="sourcePoint" />
            <mxPoint x="580" y="110" as="targetPoint" />
          </mxGeometry>
        </mxCell>
        <mxCell id="I5kaAo43inrt2bW0OfoS-26" value="" style="endArrow=classic;html=1;rounded=0;entryX=0;entryY=0.5;entryDx=0;entryDy=0;exitX=1;exitY=0.5;exitDx=0;exitDy=0;" edge="1" parent="1">
          <mxGeometry width="50" height="50" relative="1" as="geometry">
            <mxPoint x="530" y="284.65999999999997" as="sourcePoint" />
            <mxPoint x="576" y="284.65999999999997" as="targetPoint" />
          </mxGeometry>
        </mxCell>
        <mxCell id="I5kaAo43inrt2bW0OfoS-27" value="" style="endArrow=classic;html=1;rounded=0;entryX=0;entryY=0.5;entryDx=0;entryDy=0;exitX=1;exitY=0.5;exitDx=0;exitDy=0;" edge="1" parent="1">
          <mxGeometry width="50" height="50" relative="1" as="geometry">
            <mxPoint x="530" y="219.66" as="sourcePoint" />
            <mxPoint x="576" y="219.66" as="targetPoint" />
          </mxGeometry>
        </mxCell>
        <mxCell id="I5kaAo43inrt2bW0OfoS-30" value="warning.*.#" style="curved=1;endArrow=classic;html=1;rounded=0;entryX=0;entryY=0.5;entryDx=0;entryDy=0;" edge="1" parent="1" target="I5kaAo43inrt2bW0OfoS-3">
          <mxGeometry width="50" height="50" relative="1" as="geometry">
            <mxPoint x="270" y="220" as="sourcePoint" />
            <mxPoint x="320" y="170" as="targetPoint" />
            <Array as="points">
              <mxPoint x="270" y="170" />
              <mxPoint x="330" y="150" />
            </Array>
          </mxGeometry>
        </mxCell>
      </root>
    </mxGraphModel>
  </diagram>
</mxfile>
